<svg xmlns="http://www.w3.org/2000/svg" viewBox="0 0 100 100" class="buoy-logo"><style>.a{font-weight:bold;}.buoy-path{fill: white;}</style><path class="buoy-path" d="M79.4 88.8c-0.3-0.3-0.6-0.6-0.9-0.9 -2.7-2.5-6.6-3.5-10.1-2.6 -1.7 0.4-3.2 1.2-4.5 2.3 -0.5 0.4-0.9 0.8-1.3 1.2 -0.7 0.7-1.2 1.2-1.9 1.6 -2.2 1.2-4.9 1.3-7.1 0.1 -0.9-0.5-1.6-1.2-2.4-2l-0.4-0.4c-1.3-1.3-2.9-2.3-4.7-2.8 -3.5-1-7.4-0.2-10.2 2.2 -0.4 0.4-0.9 0.8-1.3 1.2C34 89.5 33.5 90 32.9 90.4c-1.1 0.7-2.3 1.1-3.6 1.1 -2.7 0.1-4.5-1.2-6.6-3.2 -2-2-4.9-3.2-7.8-3.2v3.5c2 0 3.9 0.8 5.3 2.2 2.2 2.2 5 4.4 9.2 4.2 1.9-0.1 3.7-0.6 5.3-1.6 1-0.6 1.7-1.3 2.3-2 0.3-0.3 0.7-0.7 1-1 1.9-1.6 4.6-2.2 7-1.5 1.2 0.3 2.3 1 3.2 1.9l0.4 0.4c0.9 0.9 1.9 1.9 3.3 2.7 3.3 1.7 7.3 1.6 10.5-0.2 1.1-0.6 1.9-1.5 2.7-2.2 0.3-0.3 0.7-0.7 1.1-1 0.9-0.8 1.9-1.3 3.1-1.6 2.4-0.6 5.1 0.1 6.9 1.8 0.3 0.3 0.5 0.5 0.8 0.8 0.9 0.9 1.8 1.8 3.1 2.5 1.6 0.8 3.3 1.2 5 1.2V91.5c-1.2 0-2.4-0.3-3.4-0.8C80.8 90.2 80.1 89.6 79.4 88.8zM59.8 23.3c0 1 0.8 1.7 1.7 1.7h4.6c1 0 1.7-0.8 1.7-1.7 0-1-0.8-1.7-1.7-1.7H61.5C60.6 21.6 59.8 22.4 59.8 23.3zM50.2 13.1c1 0 1.7-0.8 1.7-1.7V6.7C52 5.8 51.2 5 50.2 5c-1 0-1.7 0.8-1.7 1.7v4.6C48.5 12.3 49.3 13.1 50.2 13.1zM58.9 16.2c0.4 0 0.9-0.2 1.2-0.5l3.3-3.3c0.7-0.7 0.7-1.8 0-2.5 -0.7-0.7-1.8-0.7-2.5 0l-3.3 3.3c-0.7 0.7-0.7 1.8 0 2.5C58 16 58.4 16.2 58.9 16.2zM40.3 15.6c0.3 0.3 0.8 0.5 1.2 0.5 0.4 0 0.9-0.2 1.2-0.5 0.7-0.7 0.7-1.8 0-2.5l-3.3-3.3c-0.7-0.7-1.8-0.7-2.5 0 -0.7 0.7-0.7 1.8 0 2.5L40.3 15.6zM34.3 25.1h4.6c1 0 1.7-0.8 1.7-1.7 0-1-0.8-1.7-1.7-1.7h-4.6c-1 0-1.7 0.8-1.7 1.7C32.5 24.3 33.3 25.1 34.3 25.1zM76.1 61.7c0.3 0.3 0.5 0.5 0.8 0.8 0.9 0.9 1.8 1.8 3.1 2.4 1.5 0.8 3.3 1.2 5 1.2V62.7c-1.2 0-2.4-0.3-3.4-0.8 -0.8-0.4-1.5-1.1-2.2-1.8 -0.3-0.3-0.6-0.6-0.9-0.9 -2.7-2.5-6.6-3.5-10.1-2.6 -1 0.2-1.9 0.6-2.8 1.1l-10-29.5v-5.9c0-2.9-2.4-5.3-5.3-5.3h-0.3c-2.9 0-5.3 2.4-5.3 5.3v5.9L33.7 60.9c-0.3 0.3-0.6 0.5-0.8 0.6 -1.1 0.7-2.3 1.1-3.6 1.1 -2.7 0.1-4.5-1.2-6.6-3.2 -2-2-4.9-3.2-7.8-3.2v3.5c2 0 3.9 0.8 5.3 2.2 1.9 1.9 4.2 3.8 7.5 4.2 -0.5 1-0.8 2.1-0.8 3.3v7.3c-1.5-0.5-2.8-1.5-4.2-2.9 -2-2-4.9-3.2-7.8-3.2v3.5c2 0 3.9 0.8 5.3 2.2 2.1 2.1 4.8 4.3 8.7 4.3 0.1 0 0.3 0 0.4 0 1.9-0.1 3.7-0.6 5.3-1.6 1-0.6 1.7-1.3 2.3-2 0.3-0.3 0.7-0.7 1-1 1.9-1.6 4.6-2.2 7-1.5 1.2 0.3 2.3 1 3.2 1.9l0.4 0.4c0.9 1 1.9 1.9 3.3 2.7 3.3 1.7 7.3 1.6 10.5-0.2 1.1-0.6 1.9-1.5 2.7-2.2 0.3-0.3 0.7-0.7 1.1-1 0.9-0.8 1.9-1.3 3.1-1.6 2.4-0.6 5.1 0.1 6.9 1.8 0.3 0.3 0.5 0.5 0.8 0.8 0.9 0.9 1.8 1.8 3.1 2.4 1.5 0.8 3.3 1.2 5 1.2v-3.5c-1.2 0-2.4-0.3-3.4-0.8 -0.8-0.4-1.5-1.1-2.2-1.8 -0.3-0.3-0.6-0.6-0.9-0.9 -1.5-1.4-3.4-2.3-5.4-2.7v-1.4c0-3.7-2.6-6.8-6-7.6l-0.3-0.8c0.8-0.5 1.6-0.9 2.5-1.1C71.7 59.4 74.3 60 76.1 61.7zM63.3 61.7H57.7l-2.3-13.8h3.2L63.3 61.7zM48.3 22.3c0-1 0.8-1.8 1.8-1.8h0.3c1 0 1.8 0.8 1.8 1.8v4.4h-3.9V22.3zM47.8 30.2h4.9l1.8 5.3h-8.5L47.8 30.2zM44.8 39h10.8l1.8 5.3H43L44.8 39zM54.2 61.7h-7.9l2.3-13.8h3.3L54.2 61.7zM41.8 47.8h3.2l-2.3 13.8h-5.6L41.8 47.8zM34.6 74.5c-0.6 0.6-1.1 1.1-1.7 1.5 -0.8 0.5-1.6 0.8-2.5 1v-2.8h4.5C34.8 74.3 34.7 74.4 34.6 74.5zM62.6 74.5c-0.7 0.7-1.2 1.2-1.9 1.6 -2.2 1.2-4.9 1.3-7.1 0.1 -0.9-0.5-1.6-1.2-2.5-2l-0.1-0.1h12C62.9 74.3 62.7 74.4 62.6 74.5zM69.6 69.4v1.2H30.4v-1.2c0-2.4 1.9-4.3 4.3-4.3h30.6C67.6 65.2 69.6 67.1 69.6 69.4z"/></svg>